<svg width="20" height="20" viewBox="0 0 20 20" fill="none" xmlns="http://www.w3.org/2000/svg">
<path d="M20 10C20 15.5228 15.5228 20 10 20C4.47715 20 0 15.5228 0 10C0 4.47715 4.47715 0 10 0C15.5228 0 20 4.47715 20 10Z" fill="#3EB959"/>
<path fill-rule="evenodd" clip-rule="evenodd" d="M14.726 7.1838C15.0508 7.46236 15.0928 7.95693 14.8199 8.28845L10.4058 13.6504C10.0221 14.1165 9.3193 14.1165 8.9356 13.6504L6.18007 10.3032C5.90715 9.97169 5.94921 9.47712 6.274 9.19855C6.59879 8.91999 7.08332 8.96291 7.35623 9.29443L9.6707 12.1059L13.6438 7.27967C13.9167 6.94816 14.4012 6.90523 14.726 7.1838Z" fill="white"/>
</svg>
