<svg width="12" height="12" viewBox="0 0 12 12" fill="none" xmlns="http://www.w3.org/2000/svg">
<g clip-path="url(#clip0_375_5759)">
<path d="M10.0686 12C9.88359 11.9995 9.70056 11.9623 9.53003 11.8907C9.35951 11.819 9.20487 11.7143 9.07506 11.5825L6.00006 8.5255L2.92506 11.5845C2.72758 11.7849 2.47431 11.9211 2.19827 11.9754C1.92223 12.0297 1.63624 11.9996 1.37756 11.889C1.11632 11.7839 0.892835 11.6025 0.736291 11.3685C0.579747 11.1344 0.49742 10.8586 0.500062 10.577V2.5C0.500062 1.83696 0.763454 1.20107 1.23229 0.732233C1.70114 0.263392 2.33702 0 3.00006 0L9.00006 0C9.32837 0 9.65346 0.0646644 9.95677 0.190301C10.2601 0.315938 10.5357 0.500087 10.7678 0.732233C11 0.96438 11.1841 1.23998 11.3098 1.54329C11.4354 1.84661 11.5001 2.1717 11.5001 2.5V10.577C11.5029 10.8583 11.4208 11.134 11.2647 11.368C11.1085 11.6021 10.8854 11.7836 10.6246 11.889C10.4485 11.9626 10.2594 12.0004 10.0686 12ZM3.00006 1C2.60224 1 2.22071 1.15804 1.9394 1.43934C1.6581 1.72064 1.50006 2.10218 1.50006 2.5V10.577C1.49988 10.6603 1.5244 10.7418 1.57051 10.8112C1.61663 10.8806 1.68227 10.9348 1.75916 10.9669C1.83604 10.999 1.92072 11.0076 2.00248 10.9916C2.08425 10.9756 2.15944 10.9357 2.21856 10.877V10.877L5.65006 7.4665C5.74374 7.37338 5.87047 7.3211 6.00256 7.3211C6.13466 7.3211 6.26138 7.37338 6.35506 7.4665L9.78256 10.876C9.84168 10.9347 9.91688 10.9746 9.99864 10.9906C10.0804 11.0066 10.1651 10.998 10.242 10.9659C10.3189 10.9338 10.3845 10.8796 10.4306 10.8102C10.4767 10.7408 10.5012 10.6593 10.5011 10.576V2.5C10.5011 2.10218 10.343 1.72064 10.0617 1.43934C9.78042 1.15804 9.39889 1 9.00106 1H3.00006Z" fill="#5B3A30"/>
</g>
<defs>
<clipPath id="clip0_375_5759">
<rect width="12" height="12" fill="white"/>
</clipPath>
</defs>
</svg>
