<svg width="13" height="12" viewBox="0 0 13 12" fill="none" xmlns="http://www.w3.org/2000/svg">
<g clip-path="url(#clip0_112_5803)">
<path d="M12.4582 8.00025H1.45212L1.4597 7.99275L2.6752 6.85025C2.72839 6.80413 2.77093 6.74856 2.80027 6.68688C2.82961 6.62521 2.84515 6.5587 2.84595 6.49134C2.84676 6.42398 2.83281 6.35717 2.80494 6.29491C2.77707 6.23266 2.73587 6.17624 2.6838 6.12905C2.63172 6.08186 2.56986 6.04487 2.50191 6.02029C2.43396 5.99572 2.36134 5.98408 2.2884 5.98606C2.21545 5.98804 2.1437 6.0036 2.07743 6.03182C2.01117 6.06003 1.95176 6.10031 1.90279 6.15025L0.689994 7.28875C0.601702 7.37025 0.478202 7.49525 0.351994 7.62675C0.12535 7.86331 0.000244141 8.1682 0.000244141 8.484C0.000244141 8.7998 0.12535 9.10469 0.351994 9.34125C0.478202 9.47225 0.601702 9.59725 0.686744 9.67625L1.90279 10.8182C2.00473 10.9067 2.13976 10.9552 2.27963 10.9538C2.41949 10.9524 2.55333 10.9011 2.65314 10.8106C2.75295 10.7202 2.81099 10.5976 2.8151 10.4685C2.81921 10.3395 2.76908 10.214 2.6752 10.1182L1.48624 9.00025H12.4582C12.6019 9.00025 12.7397 8.94757 12.8413 8.8538C12.9428 8.76003 12.9999 8.63286 12.9999 8.50025C12.9999 8.36764 12.9428 8.24046 12.8413 8.1467C12.7397 8.05293 12.6019 8.00025 12.4582 8.00025Z" fill="#5B3A30"/>
<path d="M0.541667 4.00024H11.5131L10.3247 5.11674C10.2715 5.16286 10.229 5.21843 10.1996 5.2801C10.1703 5.34178 10.1548 5.40829 10.154 5.47565C10.1532 5.54301 10.1671 5.60982 10.195 5.67207C10.2228 5.73433 10.264 5.79075 10.3161 5.83794C10.3682 5.88513 10.4301 5.92212 10.498 5.94669C10.5659 5.97127 10.6386 5.98291 10.7115 5.98093C10.7845 5.97895 10.8562 5.96339 10.9225 5.93517C10.9887 5.90696 11.0481 5.86667 11.0971 5.81674L12.3099 4.67724C12.3982 4.59574 12.5217 4.47074 12.6479 4.33974C12.8746 4.10318 12.9997 3.79829 12.9997 3.48249C12.9997 3.16669 12.8746 2.8618 12.6479 2.62524C12.5217 2.49374 12.3982 2.36874 12.3132 2.29024L11.0971 1.15024C10.9952 1.06184 10.8601 1.01326 10.7203 1.01468C10.5804 1.0161 10.4466 1.06741 10.3468 1.15786C10.247 1.24831 10.1889 1.3709 10.1848 1.49995C10.1807 1.62901 10.2308 1.75453 10.3247 1.85024L11.544 2.99524L11.5483 3.00024H0.541667C0.398008 3.00024 0.260233 3.05292 0.158651 3.14669C0.0570683 3.24045 0 3.36763 0 3.50024C0 3.63285 0.0570683 3.76002 0.158651 3.85379C0.260233 3.94756 0.398008 4.00024 0.541667 4.00024Z" fill="#5B3A30"/>
</g>
<defs>
<clipPath id="clip0_112_5803">
<rect width="13" height="12" fill="white"/>
</clipPath>
</defs>
</svg>
