<svg width="81" height="25" viewBox="0 0 81 25" fill="none" xmlns="http://www.w3.org/2000/svg">
<rect width="81" height="25" rx="12.5" fill="#48B515"/>
<path d="M25.799 16V8.72727H28.3913C28.9571 8.72727 29.4259 8.83026 29.7976 9.03622C30.1693 9.24219 30.4474 9.52391 30.6321 9.88139C30.8168 10.2365 30.9091 10.6366 30.9091 11.0817C30.9091 11.5291 30.8156 11.9316 30.6286 12.2891C30.4439 12.6442 30.1645 12.9259 29.7905 13.1342C29.4188 13.3402 28.9512 13.4432 28.3878 13.4432H26.6051V12.5128H28.2884C28.6458 12.5128 28.9358 12.4512 29.1584 12.3281C29.3809 12.2027 29.5443 12.0322 29.6484 11.8168C29.7526 11.6013 29.8047 11.3563 29.8047 11.0817C29.8047 10.8071 29.7526 10.5632 29.6484 10.3501C29.5443 10.1371 29.3797 9.97017 29.1548 9.84943C28.9323 9.72869 28.6387 9.66832 28.2741 9.66832H26.8963V16H25.799ZM32.1103 16V10.5455H33.1365V11.4119H33.1934C33.2928 11.1184 33.468 10.8875 33.7189 10.7195C33.9722 10.549 34.2587 10.4638 34.5783 10.4638C34.6446 10.4638 34.7227 10.4661 34.8127 10.4709C34.905 10.4756 34.9772 10.4815 35.0293 10.4886V11.5043C34.9867 11.4924 34.9109 11.4794 34.802 11.4652C34.6931 11.4486 34.5842 11.4403 34.4753 11.4403C34.2244 11.4403 34.0007 11.4936 33.8042 11.6001C33.61 11.7043 33.4561 11.8499 33.3425 12.0369C33.2289 12.2216 33.1721 12.4323 33.1721 12.669V16H32.1103ZM38.1037 16.1101C37.5663 16.1101 37.1035 15.9953 36.7152 15.7656C36.3293 15.5336 36.031 15.2081 35.8203 14.7891C35.612 14.3677 35.5078 13.8741 35.5078 13.3082C35.5078 12.7495 35.612 12.2571 35.8203 11.831C36.031 11.4048 36.3246 11.0722 36.701 10.8331C37.0798 10.594 37.5225 10.4744 38.0291 10.4744C38.3369 10.4744 38.6352 10.5253 38.924 10.6271C39.2128 10.7289 39.4721 10.8887 39.7017 11.1065C39.9313 11.3243 40.1125 11.6072 40.245 11.9553C40.3776 12.3009 40.4439 12.7211 40.4439 13.2159V13.5923H36.108V12.7969H39.4034C39.4034 12.5175 39.3466 12.2701 39.233 12.0547C39.1193 11.8369 38.9595 11.6652 38.7536 11.5398C38.55 11.4143 38.3108 11.3516 38.0362 11.3516C37.7379 11.3516 37.4775 11.425 37.255 11.5717C37.0348 11.7161 36.8643 11.9055 36.7436 12.1399C36.6252 12.3719 36.5661 12.6241 36.5661 12.8963V13.5178C36.5661 13.8823 36.63 14.1925 36.7578 14.4482C36.888 14.7038 37.0691 14.8991 37.3011 15.0341C37.5331 15.1667 37.8042 15.233 38.1143 15.233C38.3156 15.233 38.4991 15.2045 38.6648 15.1477C38.8305 15.0885 38.9737 15.0009 39.0945 14.8849C39.2152 14.7689 39.3075 14.6257 39.3714 14.4553L40.3764 14.6364C40.2959 14.9323 40.1515 15.1915 39.9432 15.4141C39.7372 15.6342 39.478 15.8059 39.1655 15.929C38.8554 16.0497 38.5014 16.1101 38.1037 16.1101ZM41.622 16V10.5455H42.6412V11.4332H42.7086C42.8223 11.1326 43.0081 10.8982 43.2662 10.7301C43.5242 10.5597 43.8332 10.4744 44.193 10.4744C44.5576 10.4744 44.863 10.5597 45.1092 10.7301C45.3578 10.9006 45.5413 11.1349 45.6596 11.4332H45.7164C45.8467 11.142 46.0538 10.91 46.3379 10.7372C46.622 10.562 46.9605 10.4744 47.3535 10.4744C47.8483 10.4744 48.252 10.6295 48.5645 10.9396C48.8793 11.2498 49.0368 11.7173 49.0368 12.3423V16H47.975V12.4418C47.975 12.0724 47.8743 11.8049 47.6731 11.6392C47.4719 11.4735 47.2316 11.3906 46.9522 11.3906C46.6066 11.3906 46.3379 11.4972 46.1461 11.7102C45.9544 11.9209 45.8585 12.192 45.8585 12.5234V16H44.8002V12.3743C44.8002 12.0784 44.7079 11.8404 44.5233 11.6605C44.3386 11.4806 44.0983 11.3906 43.8024 11.3906C43.6011 11.3906 43.4153 11.4439 43.2449 11.5504C43.0768 11.6546 42.9406 11.8002 42.8365 11.9872C42.7347 12.1742 42.6838 12.3909 42.6838 12.6371V16H41.622ZM50.4599 16V10.5455H51.5217V16H50.4599ZM50.9961 9.70384C50.8114 9.70384 50.6528 9.64228 50.5202 9.51918C50.39 9.3937 50.3249 9.24455 50.3249 9.07173C50.3249 8.89654 50.39 8.7474 50.5202 8.62429C50.6528 8.49882 50.8114 8.43608 50.9961 8.43608C51.1808 8.43608 51.3382 8.49882 51.4684 8.62429C51.601 8.7474 51.6673 8.89654 51.6673 9.07173C51.6673 9.24455 51.601 9.3937 51.4684 9.51918C51.3382 9.64228 51.1808 9.70384 50.9961 9.70384ZM56.4054 13.7379V10.5455H57.4707V16H56.4267V15.0554H56.3699C56.2444 15.3466 56.0431 15.5893 55.7662 15.7834C55.4915 15.9751 55.1494 16.071 54.7399 16.071C54.3895 16.071 54.0794 15.9941 53.8095 15.8402C53.542 15.6839 53.3313 15.4531 53.1774 15.1477C53.0259 14.8423 52.9501 14.4647 52.9501 14.0149V10.5455H54.0119V13.8871C54.0119 14.2588 54.1149 14.5547 54.3208 14.7749C54.5268 14.995 54.7943 15.1051 55.1234 15.1051C55.3223 15.1051 55.5199 15.0554 55.7164 14.956C55.9153 14.8565 56.0798 14.7062 56.21 14.505C56.3426 14.3037 56.4077 14.0481 56.4054 13.7379ZM58.8974 16V10.5455H59.9165V11.4332H59.984C60.0977 11.1326 60.2835 10.8982 60.5415 10.7301C60.7996 10.5597 61.1085 10.4744 61.4684 10.4744C61.833 10.4744 62.1384 10.5597 62.3846 10.7301C62.6332 10.9006 62.8166 11.1349 62.935 11.4332H62.9918C63.122 11.142 63.3292 10.91 63.6133 10.7372C63.8974 10.562 64.2359 10.4744 64.6289 10.4744C65.1237 10.4744 65.5273 10.6295 65.8398 10.9396C66.1547 11.2498 66.3121 11.7173 66.3121 12.3423V16H65.2504V12.4418C65.2504 12.0724 65.1497 11.8049 64.9485 11.6392C64.7473 11.4735 64.507 11.3906 64.2276 11.3906C63.882 11.3906 63.6133 11.4972 63.4215 11.7102C63.2298 11.9209 63.1339 12.192 63.1339 12.5234V16H62.0756V12.3743C62.0756 12.0784 61.9833 11.8404 61.7987 11.6605C61.614 11.4806 61.3737 11.3906 61.0778 11.3906C60.8765 11.3906 60.6907 11.4439 60.5202 11.5504C60.3522 11.6546 60.216 11.8002 60.1119 11.9872C60.0101 12.1742 59.9592 12.3909 59.9592 12.6371V16H58.8974Z" fill="white"/>
<path d="M15.2263 6.60982C15.3323 6.3736 15.6677 6.3736 15.7737 6.60982L17.2329 9.86101C17.2765 9.9582 17.3684 10.025 17.4743 10.0364L21.0173 10.4195C21.2747 10.4474 21.3784 10.7663 21.1865 10.9401L18.5453 13.3326C18.4664 13.4041 18.4313 13.5121 18.4531 13.6164L19.1836 17.1044C19.2367 17.3578 18.9653 17.5549 18.7407 17.4261L15.6492 15.6536C15.5568 15.6006 15.4432 15.6006 15.3508 15.6536L12.2593 17.4261C12.0347 17.5549 11.7633 17.3578 11.8164 17.1044L12.5469 13.6164C12.5687 13.5121 12.5336 13.4041 12.4547 13.3326L9.81353 10.9401C9.62164 10.7663 9.72527 10.4474 9.98268 10.4195L13.5257 10.0364C13.6316 10.025 13.7235 9.9582 13.7671 9.86101L15.2263 6.60982Z" fill="white"/>
</svg>
