<svg width="14" height="13" viewBox="0 0 14 13" fill="none" xmlns="http://www.w3.org/2000/svg">
<path d="M8.21381 3.02575L0.524893 10.1665C0.208971 10.4811 0.0369008 10.8973 0.0449478 11.3273C0.0529947 11.7574 0.24053 12.1677 0.56803 12.4719C0.89553 12.7761 1.33741 12.9503 1.80055 12.9579C2.26368 12.9655 2.7119 12.8058 3.05073 12.5125L10.7414 5.37279L8.21381 3.02575ZM9.09173 5.37279L7.58323 6.77354L6.70823 5.95833L8.21673 4.55758L9.09173 5.37279ZM2.22589 11.7477C2.10797 11.852 1.95131 11.9103 1.78839 11.9103C1.62548 11.9103 1.46882 11.852 1.35089 11.7477C1.23505 11.6398 1.17 11.4937 1.17 11.3414C1.17 11.1891 1.23505 11.043 1.35089 10.9352L5.88281 6.72642L6.76073 7.54163L2.22589 11.7477ZM12.4441 7.9235L13.9999 8.64608L12.4441 9.37083L11.6666 10.8128L10.889 9.37083L9.33323 8.64608L10.889 7.9235L11.6666 6.47942L12.4441 7.9235ZM3.88898 2.88871L2.33323 2.16667L3.88898 1.44463L4.66656 0L5.44414 1.44463L6.99989 2.16667L5.44414 2.88871L4.66656 4.33333L3.88898 2.88871ZM11.2775 2.52796L9.91656 1.89583L11.2775 1.26371L11.9582 0L12.639 1.26371L13.9999 1.89583L12.639 2.52796L11.9582 3.79167L11.2775 2.52796Z" fill="#5B3A30"/>
</svg>
