<svg width="13" height="12" viewBox="0 0 13 12" fill="none" xmlns="http://www.w3.org/2000/svg">
<path d="M6.2263 0.609817C6.33232 0.373604 6.66768 0.373604 6.7737 0.609817L8.23289 3.86101C8.27652 3.9582 8.36842 4.02497 8.47434 4.03643L12.0173 4.41953C12.2747 4.44737 12.3784 4.76631 12.1865 4.94013L9.54532 7.33258C9.46636 7.40411 9.43126 7.51215 9.4531 7.61642L10.1836 11.1044C10.2367 11.3578 9.96535 11.5549 9.74074 11.4261L6.64922 9.65356C6.5568 9.60057 6.4432 9.60057 6.35078 9.65356L3.25926 11.4261C3.03465 11.5549 2.76334 11.3578 2.81641 11.1044L3.5469 7.61642C3.56874 7.51215 3.53363 7.40411 3.45468 7.33259L0.813526 4.94013C0.621635 4.76631 0.725268 4.44737 0.98268 4.41953L4.52566 4.03643C4.63158 4.02497 4.72348 3.9582 4.76711 3.86101L6.2263 0.609817Z" fill="#F5DD04"/>
</svg>
