<svg width="16" height="16" viewBox="0 0 16 16" fill="none" xmlns="http://www.w3.org/2000/svg">
<path d="M16 8C16 12.4183 12.4183 16 8 16C3.58172 16 0 12.4183 0 8C0 3.58172 3.58172 0 8 0C12.4183 0 16 3.58172 16 8Z" fill="#3EB959"/>
<path fill-rule="evenodd" clip-rule="evenodd" d="M11.7816 5.74665C12.0414 5.9695 12.0751 6.36516 11.8567 6.63037L8.32542 10.92C8.01847 11.2928 7.45622 11.2928 7.14926 10.92L4.94484 8.24217C4.72651 7.97696 4.76015 7.5813 5.01998 7.35845C5.27981 7.1356 5.66744 7.16994 5.88577 7.43515L7.73734 9.68432L10.9158 5.82335C11.1341 5.55813 11.5218 5.52379 11.7816 5.74665Z" fill="white"/>
</svg>
