<svg width="21" height="21" viewBox="0 0 21 21" fill="none" xmlns="http://www.w3.org/2000/svg">
<rect width="21" height="21" rx="10.5" fill="#48B515"/>
<path d="M10.2263 5.64986C10.3324 5.41364 10.6677 5.41364 10.7737 5.64986L11.9444 8.25818C11.988 8.35537 12.0799 8.42214 12.1858 8.4336L15.0283 8.74095C15.2857 8.76878 15.3893 9.08773 15.1974 9.26155L13.0785 11.1809C12.9995 11.2525 12.9644 11.3605 12.9863 11.4648L13.5723 14.263C13.6254 14.5165 13.3541 14.7136 13.1295 14.5848L10.6493 13.1627C10.5568 13.1097 10.4432 13.1097 10.3508 13.1627L7.8706 14.5848C7.64599 14.7136 7.37467 14.5165 7.42775 14.263L8.01379 11.4648C8.03563 11.3605 8.00053 11.2525 7.92157 11.1809L5.80266 9.26155C5.61077 9.08773 5.71441 8.76878 5.97182 8.74095L8.81423 8.4336C8.92015 8.42214 9.01205 8.35537 9.05568 8.25818L10.2263 5.64986Z" fill="white"/>
</svg>
