<svg width="14" height="14" viewBox="0 0 14 14" fill="none" xmlns="http://www.w3.org/2000/svg">
<g clip-path="url(#clip0_112_5807)">
<path d="M4.08341 13.9998C4.72775 13.9998 5.25008 13.4775 5.25008 12.8332C5.25008 12.1888 4.72775 11.6665 4.08341 11.6665C3.43908 11.6665 2.91675 12.1888 2.91675 12.8332C2.91675 13.4775 3.43908 13.9998 4.08341 13.9998Z" fill="#5B3A30"/>
<path d="M9.91667 13.9998C10.561 13.9998 11.0833 13.4775 11.0833 12.8332C11.0833 12.1888 10.561 11.6665 9.91667 11.6665C9.27233 11.6665 8.75 12.1888 8.75 12.8332C8.75 13.4775 9.27233 13.9998 9.91667 13.9998Z" fill="#5B3A30"/>
<path d="M13.4166 1.75H12.2499V0.583333C12.2499 0.428624 12.1885 0.280251 12.0791 0.170854C11.9697 0.0614582 11.8213 0 11.6666 0C11.5119 0 11.3635 0.0614582 11.2541 0.170854C11.1447 0.280251 11.0833 0.428624 11.0833 0.583333V1.75H9.91659C9.76188 1.75 9.6135 1.81146 9.50411 1.92085C9.39471 2.03025 9.33325 2.17862 9.33325 2.33333C9.33325 2.48804 9.39471 2.63642 9.50411 2.74581C9.6135 2.85521 9.76188 2.91667 9.91659 2.91667H11.0833V4.08333C11.0833 4.23804 11.1447 4.38642 11.2541 4.49581C11.3635 4.60521 11.5119 4.66667 11.6666 4.66667C11.8213 4.66667 11.9697 4.60521 12.0791 4.49581C12.1885 4.38642 12.2499 4.23804 12.2499 4.08333V2.91667H13.4166C13.5713 2.91667 13.7197 2.85521 13.8291 2.74581C13.9385 2.63642 13.9999 2.48804 13.9999 2.33333C13.9999 2.17862 13.9385 2.03025 13.8291 1.92085C13.7197 1.81146 13.5713 1.75 13.4166 1.75Z" fill="#5B3A30"/>
<path d="M12.6997 5.6735C12.6243 5.65939 12.5469 5.66038 12.4718 5.67643C12.3968 5.69249 12.3257 5.72327 12.2626 5.767C12.1996 5.81074 12.1458 5.86655 12.1045 5.93121C12.0632 5.99586 12.0351 6.06808 12.0219 6.14367C11.9492 6.54742 11.7369 6.91279 11.4221 7.17593C11.1074 7.43907 10.7102 7.58327 10.2999 7.58333H3.1605L2.61217 2.91667H7.58333C7.73804 2.91667 7.88642 2.85521 7.99581 2.74581C8.10521 2.63642 8.16667 2.48804 8.16667 2.33333C8.16667 2.17862 8.10521 2.03025 7.99581 1.92085C7.88642 1.81146 7.73804 1.75 7.58333 1.75H2.4745L2.45 1.54467C2.39973 1.11918 2.19512 0.726923 1.87494 0.442227C1.55477 0.157532 1.14128 0.000182488 0.712833 0L0.583333 0C0.428624 0 0.280251 0.0614582 0.170854 0.170854C0.0614582 0.280251 0 0.428624 0 0.583333C0 0.738043 0.0614582 0.886416 0.170854 0.995812C0.280251 1.10521 0.428624 1.16667 0.583333 1.16667H0.712833C0.855711 1.16669 0.993613 1.21914 1.10038 1.31408C1.20715 1.40903 1.27537 1.53985 1.29208 1.68175L2.09475 8.50675C2.17808 9.21654 2.51911 9.87104 3.05311 10.346C3.58711 10.821 4.27692 11.0833 4.99158 11.0833H11.0833C11.238 11.0833 11.3864 11.0219 11.4958 10.9125C11.6052 10.8031 11.6667 10.6547 11.6667 10.5C11.6667 10.3453 11.6052 10.1969 11.4958 10.0875C11.3864 9.97812 11.238 9.91667 11.0833 9.91667H4.99158C4.62964 9.91674 4.27657 9.80457 3.98102 9.59563C3.68547 9.38669 3.46198 9.09125 3.34133 8.75H10.2999C10.9837 8.75007 11.6457 8.50991 12.1704 8.07148C12.6951 7.63305 13.0491 7.02422 13.1705 6.35133C13.1841 6.27591 13.1828 6.19855 13.1665 6.12366C13.1502 6.04877 13.1193 5.97782 13.0756 5.91487C13.0319 5.85192 12.9762 5.7982 12.9117 5.75679C12.8472 5.71537 12.7752 5.68707 12.6997 5.6735Z" fill="#5B3A30"/>
</g>
<defs>
<clipPath id="clip0_112_5807">
<rect width="14" height="14" fill="white"/>
</clipPath>
</defs>
</svg>
